<?xml version="1.0" encoding="UTF-8" standalone="no"?>
<!-- Created with Inkscape (http://www.inkscape.org/) -->

<svg
   version="1.1"
   id="svg6875"
   xml:space="preserve"
   width="293.85141"
   height="175.16219"
   viewBox="0 0 293.85141 175.16219"
   sodipodi:docname="gnn.svg"
   inkscape:version="1.1 (c68e22c387, 2021-05-23)"
   xmlns:inkscape="http://www.inkscape.org/namespaces/inkscape"
   xmlns:sodipodi="http://sodipodi.sourceforge.net/DTD/sodipodi-0.dtd"
   xmlns="http://www.w3.org/2000/svg"
   xmlns:svg="http://www.w3.org/2000/svg"><defs
     id="defs6879" /><sodipodi:namedview
     id="namedview6877"
     pagecolor="#ffffff"
     bordercolor="#666666"
     borderopacity="1.0"
     inkscape:pageshadow="2"
     inkscape:pageopacity="0.0"
     inkscape:pagecheckerboard="0"
     showgrid="false"
     inkscape:zoom="3.6004592"
     inkscape:cx="146.78683"
     inkscape:cy="87.627713"
     inkscape:window-width="2560"
     inkscape:window-height="1377"
     inkscape:window-x="1432"
     inkscape:window-y="1129"
     inkscape:window-maximized="1"
     inkscape:current-layer="g6881" /><g
     id="g6881"
     inkscape:groupmode="layer"
     inkscape:label="gnn"
     transform="matrix(1.3333333,0,0,1.3333333,0,3.7123881e-6)"><path
       d="m 31.863,112.547 c 0,8.797 -7.133,15.93 -15.933,15.93 -8.797,0 -15.93,-7.133 -15.93,-15.93 0,-8.801 7.133,-15.934 15.93,-15.934 8.8,0 15.933,7.133 15.933,15.934 z"
       style="fill:#00ff10;fill-opacity:1;fill-rule:nonzero;stroke:none"
       id="path6885" /><path
       d="m 32.586,65.961 c 0,8.797 -7.133,15.93 -15.93,15.93 -8.801,0 -15.933,-7.133 -15.933,-15.93 0,-8.797 7.132,-15.93 15.933,-15.93 8.797,0 15.93,7.133 15.93,15.93 z"
       style="fill:#00ffff;fill-opacity:1;fill-rule:nonzero;stroke:none"
       id="path6887" /><path
       d="m 33.793,21.789 c 0,8.801 -7.133,15.934 -15.93,15.934 -8.801,0 -15.933,-7.133 -15.933,-15.934 0,-8.797 7.132,-15.93 15.933,-15.93 8.797,0 15.93,7.133 15.93,15.93 z"
       style="fill:#0000ff;fill-opacity:1;fill-rule:nonzero;stroke:none"
       id="path6889" /><path
       d="M 54.902,3.633 H 91.59 V 39.356 H 54.902 Z"
       style="fill:#0000ff;fill-opacity:0.542169;fill-rule:nonzero;stroke:none"
       id="path6891" /><path
       d="M 54.418,47.859 H 91.106 V 83.582 H 54.418 Z"
       style="fill:#00ffff;fill-opacity:0.542169;fill-rule:nonzero;stroke:none"
       id="path6893" /><path
       d="M 54.902,95.648 H 91.59 v 35.723 H 54.902 Z"
       style="fill:#00ff00;fill-opacity:0.542169;fill-rule:nonzero;stroke:none"
       id="path6895" /><path
       d="m 129.09,22.426 h 90 v 22.5 h -90 z"
       style="fill:#ac9d93;fill-opacity:1;fill-rule:nonzero;stroke:none"
       id="path6897" /><path
       d="m 129.09,44.926 h 90 v 22.5 h -90 z"
       style="fill:#ff9955;fill-opacity:1;fill-rule:nonzero;stroke:none"
       id="path6899" /><path
       d="m 129.09,67.426 h 90 v 22.5 h -90 z"
       style="fill:#ffdd55;fill-opacity:1;fill-rule:nonzero;stroke:none"
       id="path6901" /><path
       d="m 129.09,89.926 h 90 v 22.5 h -90 z"
       style="fill:#ff5555;fill-opacity:1;fill-rule:nonzero;stroke:none"
       id="path6903" /><g
       id="g6905"><path
         d="m 129.09,22.426 h 90 v 90 h -90 z"
         style="fill:none;stroke:#000000;stroke-width:2.59807;stroke-linecap:butt;stroke-linejoin:miter;stroke-miterlimit:4;stroke-dasharray:none;stroke-opacity:1"
         id="path6907" /></g><g
       id="g6909"><path
         d="m 31.59,22.426 c 22.5,0 22.5,0 22.5,0"
         style="fill:none;stroke:#000000;stroke-width:0.751181;stroke-linecap:butt;stroke-linejoin:miter;stroke-miterlimit:4;stroke-dasharray:none;stroke-opacity:1"
         id="path6911" /></g><g
       id="g6913"
       transform="scale(-1)"><path
         d="m -46.578,-22.426 3.004,-3.004 -10.516,3.004 10.516,3.004 z"
         style="fill:#000000;fill-opacity:1;fill-rule:evenodd;stroke:#000000;stroke-width:0.80126;stroke-linecap:butt;stroke-linejoin:miter;stroke-miterlimit:4;stroke-dasharray:none;stroke-opacity:1"
         id="path6915" /></g><g
       id="g6917"><path
         d="m 31.59,112.426 c 22.5,0 22.5,0 22.5,0"
         style="fill:none;stroke:#000000;stroke-width:0.751181;stroke-linecap:butt;stroke-linejoin:miter;stroke-miterlimit:4;stroke-dasharray:none;stroke-opacity:1"
         id="path6919" /></g><g
       id="g6921"
       transform="scale(-1)"><path
         d="m -46.578,-112.426 3.004,-3.004 -10.516,3.004 10.516,3.004 z"
         style="fill:#000000;fill-opacity:1;fill-rule:evenodd;stroke:#000000;stroke-width:0.80126;stroke-linecap:butt;stroke-linejoin:miter;stroke-miterlimit:4;stroke-dasharray:none;stroke-opacity:1"
         id="path6923" /></g><g
       id="g6925"><path
         d="m 31.59,67.426 c 22.5,0 22.5,0 22.5,0"
         style="fill:none;stroke:#000000;stroke-width:0.751181;stroke-linecap:butt;stroke-linejoin:miter;stroke-miterlimit:4;stroke-dasharray:none;stroke-opacity:1"
         id="path6927" /></g><g
       id="g6929"
       transform="scale(-1)"><path
         d="m -46.578,-67.426 3.004,-3.004 -10.516,3.004 10.516,3.004 z"
         style="fill:#000000;fill-opacity:1;fill-rule:evenodd;stroke:#000000;stroke-width:0.80126;stroke-linecap:butt;stroke-linejoin:miter;stroke-miterlimit:4;stroke-dasharray:none;stroke-opacity:1"
         id="path6931" /></g><g
       id="g6933"><path
         d="m 91.59,112.426 c 22.5,0 22.5,0 22.5,0"
         style="fill:none;stroke:#000000;stroke-width:0.749999;stroke-linecap:butt;stroke-linejoin:miter;stroke-miterlimit:4;stroke-dasharray:none;stroke-opacity:1"
         id="path6935" /></g><g
       id="g6937"><path
         d="m 91.59,67.426 c 22.5,0 22.5,0 22.5,0"
         style="fill:none;stroke:#000000;stroke-width:0.749999;stroke-linecap:butt;stroke-linejoin:miter;stroke-miterlimit:4;stroke-dasharray:none;stroke-opacity:1"
         id="path6939" /></g><g
       id="g6941"><path
         d="m 91.59,22.426 c 22.5,0 22.5,0 22.5,0"
         style="fill:none;stroke:#000000;stroke-width:0.749999;stroke-linecap:butt;stroke-linejoin:miter;stroke-miterlimit:4;stroke-dasharray:none;stroke-opacity:1"
         id="path6943" /></g><g
       id="g6945"><path
         d="m 114.09,127.426 c 0,-105 0,-105 0,-105"
         style="fill:none;stroke:#000000;stroke-width:0.701561;stroke-linecap:butt;stroke-linejoin:miter;stroke-miterlimit:4;stroke-dasharray:none;stroke-opacity:1"
         id="path6947" /></g><g
       id="g6949"><path
         d="m 114.09,127.426 c 60,0 60,0 60,0 0,-15 0,-15 0,-15"
         style="fill:none;stroke:#000000;stroke-width:0.749999;stroke-linecap:butt;stroke-linejoin:miter;stroke-miterlimit:4;stroke-dasharray:none;stroke-opacity:1"
         id="path6951" /></g><g
       id="g6953"
       transform="rotate(90)"><path
         d="m 119.926,-174.09 3,-3 -10.5,3 10.5,3 z"
         style="fill:#000000;fill-opacity:1;fill-rule:evenodd;stroke:#000000;stroke-width:0.799999;stroke-linecap:butt;stroke-linejoin:miter;stroke-miterlimit:4;stroke-dasharray:none;stroke-opacity:1"
         id="path6955" /></g><g
       id="g6965"><path
         d="m 114.09,79.789 c 15,0 15,0 15,0"
         style="fill:none;stroke:#000000;stroke-width:0.749999;stroke-linecap:butt;stroke-linejoin:miter;stroke-miterlimit:4;stroke-dasharray:none;stroke-opacity:1"
         id="path6967" /></g><path
       d="m 121.07,76.461 9.016,3.312 -9.016,3.317 c 1.442,-1.957 1.434,-4.637 0,-6.629 z"
       style="fill:#000000;fill-opacity:1;fill-rule:evenodd;stroke:none"
       id="path6969" /><g
       id="g6971"><path
         d="m 114.57,56.285 c 15,0 15,0 15,0"
         style="fill:none;stroke:#000000;stroke-width:0.749999;stroke-linecap:butt;stroke-linejoin:miter;stroke-miterlimit:4;stroke-dasharray:none;stroke-opacity:1"
         id="path6973" /></g><path
       d="m 121.555,52.957 9.011,3.316 -9.011,3.317 c 1.441,-1.957 1.429,-4.637 0,-6.633 z"
       style="fill:#000000;fill-opacity:1;fill-rule:evenodd;stroke:none"
       id="path6975" /><g
       id="g6977"><path
         d="m 114.57,34.527 c 15,0 15,0 15,0"
         style="fill:none;stroke:#000000;stroke-width:0.749999;stroke-linecap:butt;stroke-linejoin:miter;stroke-miterlimit:4;stroke-dasharray:none;stroke-opacity:1"
         id="path6979" /></g><path
       d="m 121.555,31.199 9.011,3.317 -9.011,3.312 c 1.441,-1.957 1.429,-4.633 0,-6.629 z"
       style="fill:#000000;fill-opacity:1;fill-rule:evenodd;stroke:none"
       id="path6981" /></g></svg>
